<?xml version="1.0" encoding="UTF-8"?><svg id="Layer_7" xmlns="http://www.w3.org/2000/svg" viewBox="0 0 50.1 34.3"><path d="M5.28,2.33H37.46c2.23,0,4.49-.12,6.72,0,1.75,.09,3.16,1.15,3.33,2.98,.23,2.45,.07,5.01,.11,7.47,.04,2.63,.08,5.25,.11,7.88,.04,2.46,.08,4.92,.12,7.39,.04,1.81-.96,3.4-2.77,3.87-.68,.18-1.39,.11-2.09,.11h-3.96c-2.64,0-5.28,0-7.92,0H15.03c-2.72,.02-5.45-.04-8.17,.02-1.36,.03-2.67-.18-3.64-1.25-.81-.9-.94-1.9-.94-3.05V14.35c0-2.63,0-5.27-.03-7.9-.02-2.08,1.27-3.74,3.32-4.16,1.42-.29,.82-2.46-.6-2.17C2.99,.53,1.28,1.91,.51,3.8-.21,5.55,.05,7.54,.05,9.39V27.75c0,4.04,2.84,6.63,6.82,6.55,6.02-.12,12.05-.01,18.07-.02l18.31-.02c1.77,0,3.36-.21,4.78-1.4,1.49-1.25,2.13-3.07,2.07-4.97-.18-5.94-.18-11.89-.26-17.83-.03-2.21,.37-4.91-.63-6.97-.88-1.82-2.7-2.86-4.68-3.01-2.74-.2-5.56,0-8.31,0H5.28c-1.45,0-1.45,2.25,0,2.25Z" fill="#327dff"/><path d="M1.64,4.54c5.85,5.4,11.7,10.79,17.64,16.08,1.37,1.21,2.93,2.99,4.76,3.43,2.08,.5,3.67-.67,5.1-2,1.93-1.81,3.87-3.62,5.8-5.43,4.41-4.13,8.82-8.26,13.23-12.39,1.06-.99-.53-2.58-1.59-1.59-3.63,3.4-7.25,6.79-10.88,10.19-1.81,1.7-3.63,3.4-5.44,5.09-.85,.79-1.69,1.58-2.54,2.38-.75,.7-1.49,1.57-2.59,1.63-1.58,.08-3.35-2.06-4.43-3.03-2.19-1.95-4.37-3.93-6.55-5.91C10.51,9.64,6.87,6.3,3.23,2.94c-1.06-.98-2.66,.61-1.59,1.59h0Z" fill="#327dff"/><line x1="18.26" y1="18.62" x2="2.44" y2="30.96" fill="none" stroke="#327dff" stroke-miterlimit="10" stroke-width="2"/><line x1="31.56" y1="18.3" x2="48.33" y2="30.96" fill="none" stroke="#327dff" stroke-miterlimit="10" stroke-width="2"/></svg>