<?xml version="1.0" encoding="UTF-8"?><svg id="Layer_7" xmlns="http://www.w3.org/2000/svg" viewBox="0 0 34.58 34.65"><path d="M6.02,.12C3.13,.56,.57,2.97,.16,5.91c-.32,2.32-.04,4.87-.04,7.22v7.63C.11,23.21,0,25.69,.11,28.14c.07,1.58,.8,3.09,1.88,4.24,2.81,2.99,7.31,2.17,11.01,2.17,4.91,0,9.87,.21,14.77,0,3.03-.13,5.81-2.29,6.37-5.33,.36-1.98,.15-4.14,.18-6.15,.04-2.5,.08-4.99,.12-7.49s.08-4.99,.12-7.49c.03-1.77,.14-3.47-.8-5.06C31.55-.74,26.77,.07,23.1,.07H6.35c-1.6,0-1.6,2.48,0,2.48H25.31c1.24,0,2.61-.17,3.84,.07,3.96,.76,2.93,5.55,2.88,8.46-.07,4.24-.13,8.49-.2,12.73-.03,1.67,.27,3.68-.21,5.29-.42,1.42-1.55,2.39-2.94,2.8-1.11,.32-2.67,.16-4.11,.16H8.82c-1.02,0-2.14,.14-3.11-.18-1.28-.42-2.33-1.38-2.84-2.63-.59-1.45-.27-3.27-.27-4.81,0-4.76,0-9.52,0-14.27,0-1.95-.39-4.2,.87-5.85,.78-1.03,1.96-1.62,3.22-1.81,1.57-.24,.9-2.63-.66-2.39Z" fill="#ff5ea0"/><ellipse cx="17.39" cy="17.52" rx="7.37" ry="7.25" fill="none" stroke="#327dff" stroke-miterlimit="10" stroke-width="2.58"/><ellipse cx="27.11" cy="7.53" rx="2.29" ry="2.43" transform="translate(-.44 1.81) rotate(-3.79)" fill="#327dff"/></svg>