<?xml version="1.0" encoding="UTF-8"?><svg id="Layer_7" xmlns="http://www.w3.org/2000/svg" viewBox="0 0 34.58 34.65"><g><circle cx="8.52" cy="8.23" r="3.01" fill="#327dff"/><rect x="6.06" y="12.34" width="4.93" height="15.88" fill="#327dff"/><rect x="13.72" y="12.34" width="4.93" height="15.88" fill="#327dff"/><g><path d="M18.25,15.03c.39-.45,1.33-1.42,2.86-1.87,.58-.17,1.85-.53,3.29,0,.22,.08,1.33,.5,2.19,1.64,.99,1.31,1.06,2.78,1.1,3.83,.11,3.31,.08,6.32,0,8.76h-3.29c.04-1.75,.03-3.24,0-4.38-.08-3.4-.3-4.52-1.1-5.48-.24-.28-.77-.88-1.64-1.1-1.99-.49-3.75,1.55-3.83,1.64,.21-.37,.54-1.08,.55-2,0-.41-.06-.77-.13-1.05Z" fill="#327dff"/><path d="M18.83,15.61c1.97-2.27,5.76-2.74,7.39,.13,.93,1.63,.68,3.86,.7,5.65,.02,2,0,4-.06,6l.82-.82h-3.29l.82,.82c.05-2.09,.06-4.2-.08-6.29-.08-1.24-.19-2.6-.89-3.67-.87-1.31-2.33-2.12-3.93-1.82-1.17,.22-2.31,.99-3.07,1.89l1.29,1c.63-1.14,.81-2.42,.5-3.69-.24-1.03-1.83-.59-1.58,.44,.2,.84,.08,1.67-.34,2.42s.66,1.73,1.29,1c.57-.67,1.38-1.3,2.26-1.45,1.07-.18,2.01,.58,2.41,1.49,.44,.99,.42,2.22,.47,3.28,.07,1.8,.07,3.6,.03,5.41,0,.44,.38,.82,.82,.82h3.29c.45,0,.81-.38,.82-.82,.07-2.36,.09-4.72,.05-7.09s-.02-4.57-1.61-6.37c-2.5-2.83-6.93-2.18-9.27,.51-.69,.79,.47,1.96,1.16,1.16Z" fill="#327dff"/></g><rect x="23.58" y="18.36" width="4.93" height="9.86" fill="#327dff"/></g><path d="M6.02,.12C3.13,.56,.57,2.97,.16,5.91c-.32,2.32-.04,4.87-.04,7.22v7.63C.11,23.21,0,25.69,.11,28.14c.07,1.58,.8,3.09,1.88,4.24,2.81,2.99,7.31,2.17,11.01,2.17,4.91,0,9.87,.21,14.77,0,3.03-.13,5.81-2.29,6.37-5.33,.36-1.98,.15-4.14,.18-6.15,.04-2.5,.08-4.99,.12-7.49s.08-4.99,.12-7.49c.03-1.77,.14-3.47-.8-5.06C31.55-.74,26.77,.07,23.1,.07c-5.58,0-11.16,0-16.74,0-1.6,0-1.6,2.48,0,2.48H25.31c1.24,0,2.61-.17,3.84,.07,3.96,.76,2.93,5.55,2.88,8.46-.07,4.24-.13,8.49-.2,12.73-.03,1.67,.27,3.68-.21,5.29-.42,1.42-1.55,2.39-2.94,2.8-1.11,.32-2.67,.16-4.11,.16H8.82c-1.02,0-2.14,.14-3.11-.18-1.28-.42-2.33-1.38-2.84-2.63-.59-1.45-.27-3.27-.27-4.81,0-4.76,0-9.52,0-14.27,0-1.95-.39-4.2,.87-5.85,.78-1.03,1.96-1.62,3.22-1.81,1.57-.24,.9-2.63-.66-2.39Z" fill="#ff5ea0"/></svg>